<?xml version="1.0" standalone="no"?>
<!DOCTYPE svg PUBLIC "-//W3C//DTD SVG 20010904//EN"
 "http://www.w3.org/TR/2001/REC-SVG-20010904/DTD/svg10.dtd">
<svg version="1.0" xmlns="http://www.w3.org/2000/svg"
 width="420.000000pt" height="420.000000pt" viewBox="0 0 420.000000 420.000000"
 preserveAspectRatio="xMidYMid meet">
<metadata>
Created by potrace 1.14, written by Peter Selinger 2001-2017
</metadata>
<g transform="translate(0.000000,420.000000) scale(0.100000,-0.100000)"
fill="#000000" stroke="none">
<path d="M1985 2939 c-12 -18 66 -79 101 -79 32 0 71 31 60 49 -4 5 3 12 14
16 11 4 17 11 14 17 -4 7 -9 6 -14 -2 -4 -7 -15 -10 -25 -7 -10 4 -14 3 -9 -4
4 -8 -8 -10 -39 -8 -25 2 -43 1 -40 -3 6 -10 -1 -10 -32 2 -14 5 -23 14 -20
20 3 5 4 10 1 10 -3 0 -8 -5 -11 -11z"/>
<path d="M2100 2744 c-275 -81 -337 -122 -561 -369 -20 -22 -57 -57 -83 -78
-56 -47 -67 -67 -116 -216 -37 -113 -39 -116 -74 -128 -20 -7 -45 -21 -56 -30
-19 -18 -102 -62 -235 -125 -53 -25 -74 -41 -85 -65 -12 -27 -21 -33 -47 -33
-39 0 -65 -9 -57 -21 3 -5 -1 -6 -9 -3 -17 6 -47 -31 -47 -58 0 -10 -8 -18
-17 -18 -54 -1 -97 -98 -58 -130 17 -14 20 -37 5 -42 -6 -2 -13 -32 -16 -68
-8 -86 6 -105 69 -101 36 2 48 -2 60 -19 14 -20 15 -19 19 25 12 103 126 125
172 32 44 -90 40 7 -10 268 -26 136 -20 166 35 186 34 13 76 -6 90 -39 6 -15
25 -94 41 -176 39 -190 82 -362 114 -450 14 -38 24 -71 24 -75 -1 -3 2 -25 6
-47 8 -45 -8 -187 -27 -244 -15 -46 -46 -88 -69 -96 -11 -3 -23 -17 -28 -30
-5 -13 -17 -24 -27 -24 -10 0 -27 -7 -37 -15 -11 -8 -25 -15 -32 -15 -7 0 -25
-5 -41 -11 -37 -15 -145 -14 -201 3 -24 7 -62 29 -85 47 -24 21 -35 27 -29 15
46 -81 177 -121 315 -95 39 7 65 7 77 1 22 -12 87 -16 115 -7 16 5 23 -1 35
-26 8 -17 35 -45 58 -62 35 -24 54 -30 97 -30 47 0 58 -4 88 -33 30 -29 45
-35 111 -44 57 -8 90 -8 128 1 28 6 51 10 52 9 1 -2 9 -16 18 -33 21 -37 98
-65 178 -63 30 1 68 -4 83 -11 16 -6 63 -11 105 -11 43 1 98 0 123 0 25 0 58
4 73 10 22 8 35 6 68 -11 53 -27 85 -32 134 -21 30 7 43 5 52 -5 7 -7 30 -13
51 -13 38 0 59 14 94 64 13 18 15 17 66 -4 l52 -23 52 21 c54 23 87 28 87 14
0 -11 72 -8 95 5 11 7 29 26 40 42 12 19 34 35 53 41 19 5 48 20 65 33 18 13
52 29 77 36 25 7 57 22 72 34 23 19 28 31 32 86 4 61 6 66 50 106 38 35 46 48
46 77 0 30 5 38 29 47 34 14 56 70 49 125 -2 20 -1 36 3 36 16 0 69 85 69 110
0 15 -11 48 -25 75 -13 27 -22 52 -19 57 4 5 3 25 0 44 -7 37 -103 148 -137
159 -13 4 -19 15 -19 35 0 16 -4 40 -10 54 -15 39 -75 101 -119 120 -24 11
-46 31 -57 52 -14 25 -41 45 -105 79 l-86 46 -5 132 c-6 144 -19 190 -67 242
-16 17 -41 64 -57 105 -55 144 -105 223 -208 326 -70 69 -98 89 -205 143 -208
106 -303 121 -461 75z m56 -43 c-4 -5 -3 -16 0 -25 5 -13 9 -14 32 -2 28 14
142 11 142 -4 0 -4 7 -11 16 -14 19 -7 47 12 38 25 -3 5 2 9 11 9 10 0 13 5 9
12 -4 7 -3 8 4 4 9 -5 8 -12 -1 -27 -10 -17 -9 -22 6 -30 12 -7 16 -17 11 -31
-5 -18 -3 -20 20 -16 15 3 30 0 34 -6 9 -14 48 -36 64 -36 15 0 52 -85 44 -99
-4 -5 -1 -13 5 -17 6 -3 9 -18 6 -33 -5 -25 -1 -29 36 -43 l42 -17 -58 0 c-63
-1 -69 -15 -12 -25 19 -4 35 -13 35 -20 0 -8 17 -16 39 -20 38 -6 40 -8 43
-49 2 -23 -1 -67 -5 -97 -5 -30 -6 -69 -4 -86 5 -28 2 -32 -29 -43 -30 -11
-40 -10 -71 4 -23 11 -48 15 -71 11 -29 -4 -32 -3 -17 4 16 8 13 9 -15 5 -20
-3 -68 3 -108 14 -39 10 -73 16 -76 13 -3 -2 -18 0 -33 7 -15 6 -57 13 -93 15
-36 3 -94 10 -129 16 -35 6 -98 10 -140 10 -114 -2 -180 9 -191 30 -9 17 -40
33 -64 35 -13 0 -20 25 -7 25 6 0 11 7 11 15 0 8 5 15 11 15 5 0 17 16 25 35
8 20 22 35 32 36 13 0 12 2 -5 9 -29 12 -29 27 -2 35 17 6 19 9 8 16 -10 6
-11 9 -1 9 6 0 12 9 12 19 0 17 10 20 88 26 48 3 114 10 147 14 59 8 58 8 -37
10 -97 1 -97 1 -89 24 4 12 18 23 30 25 11 2 21 10 21 18 0 8 9 14 20 14 14 0
20 6 18 18 -2 11 4 18 20 20 12 2 22 9 22 17 0 7 3 15 8 18 4 2 2 2 -5 1 -7
-2 -15 1 -18 6 -4 6 3 10 14 10 10 0 35 15 55 34 45 44 76 62 76 44 0 -8 5 -6
11 5 5 9 12 17 15 17 3 0 3 -4 0 -9z m299 -11 c-3 -5 -12 -10 -18 -10 -7 0 -6
4 3 10 19 12 23 12 15 0z m65 -61 c0 -6 -4 -7 -10 -4 -5 3 -10 11 -10 16 0 6
5 7 10 4 6 -3 10 -11 10 -16z m-10 -22 c13 -5 13 -6 0 -6 -18 -1 -40 18 -40
34 0 5 6 3 13 -6 7 -9 19 -18 27 -22z m40 9 c0 -3 -4 -8 -10 -11 -5 -3 -10 -1
-10 4 0 6 5 11 10 11 6 0 10 -2 10 -4z m-299 -606 c20 -6 48 -10 61 -10 14 0
60 -11 102 -25 42 -14 91 -25 109 -25 23 0 28 -3 18 -9 -8 -5 -40 -10 -70 -10
-63 -1 -113 -12 -118 -27 -2 -5 29 -15 69 -23 94 -17 180 -41 193 -53 7 -7 0
-8 -20 -4 -56 11 -212 17 -185 6 20 -8 16 -9 -21 -5 -25 2 -68 -2 -95 -9 -42
-11 -64 -11 -135 0 -46 8 -101 15 -121 16 -20 1 -35 5 -33 9 6 9 -24 21 -36
13 -5 -3 -8 0 -7 7 2 6 -3 14 -11 17 -9 3 -11 0 -6 -9 4 -8 -2 -4 -14 9 -12
12 -26 20 -32 17 -5 -4 -9 -2 -9 2 0 9 -98 32 -141 34 -22 0 -22 1 -4 9 11 4
68 6 128 4 61 -3 107 0 107 5 0 23 -114 68 -187 73 -15 1 24 4 87 7 126 7 314
-3 371 -19z m-542 6 c-73 -65 -104 -86 -129 -86 -23 0 -27 3 -23 20 6 22 49
49 98 61 34 8 60 11 54 5z m1027 -162 c29 -21 52 -69 40 -81 -13 -13 -47 13
-75 58 -17 28 -31 52 -31 54 0 8 36 -9 66 -31z m-979 6 c73 -9 163 -44 163
-62 0 -7 -4 -7 -12 -1 -7 6 -37 13 -66 17 -29 4 -60 10 -69 13 -9 4 -14 2 -10
-3 4 -7 -12 -8 -43 -4 -27 3 -47 3 -44 -1 6 -10 -23 -19 -41 -13 -8 4 -15 2
-15 -4 0 -5 -11 -13 -24 -16 -13 -3 -40 -24 -60 -46 -20 -22 -38 -40 -41 -40
-9 0 -5 39 5 45 6 4 8 10 5 14 -2 5 9 27 25 49 29 41 32 42 120 55 14 3 27 5
30 5 3 1 37 -3 77 -8z m103 -111 c47 -28 69 -52 90 -100 l21 -49 -28 -56 c-33
-68 -81 -109 -148 -130 -86 -25 -197 4 -250 67 -15 19 -31 34 -36 34 -4 0 -11
4 -16 9 -5 5 -3 6 5 2 10 -6 13 -3 11 10 -9 56 38 161 82 185 20 10 21 9 15
-7 -4 -11 -10 -32 -12 -49 l-5 -30 14 30 c17 36 62 80 97 94 32 14 130 7 160
-10z m773 -10 c34 -10 71 -27 82 -37 25 -21 45 -66 44 -95 0 -14 -3 -17 -6 -8
-18 45 -137 115 -218 128 -16 3 -32 8 -35 11 -9 12 -100 11 -93 -1 4 -7 0 -8
-12 -4 -9 4 -24 2 -32 -4 -7 -7 -17 -9 -21 -5 -8 9 22 28 58 38 40 11 165 -1
233 -23z m-660 -58 c3 8 6 -2 6 -20 1 -38 -12 -33 -24 9 -4 17 -3 21 3 11 8
-11 10 -11 15 0z m569 -12 c48 -13 103 -68 122 -123 12 -35 15 -37 15 -14 1
15 -3 38 -8 51 -17 44 19 25 45 -24 13 -24 24 -38 24 -31 0 6 5 12 11 12 15 0
2 -75 -22 -121 -10 -20 -16 -39 -14 -41 3 -3 -7 -15 -22 -29 -14 -13 -23 -18
-18 -10 5 9 3 12 -6 9 -8 -3 -13 -10 -12 -16 2 -7 -4 -9 -14 -5 -11 4 -14 3
-9 -5 5 -8 1 -10 -10 -5 -11 4 -15 2 -11 -4 4 -6 -4 -8 -21 -6 -16 3 -22 1
-15 -4 6 -4 -14 -8 -47 -8 -32 0 -56 3 -54 6 2 4 -14 9 -34 13 -44 7 -109 50
-135 90 -10 15 -25 60 -34 101 -15 67 -15 75 0 89 8 9 19 16 23 16 5 0 3 -5
-4 -12 -7 -7 -12 -21 -12 -32 0 -14 8 -7 29 25 47 75 137 105 233 78z m-371
-29 c10 -6 19 -20 19 -31 0 -36 31 -173 48 -209 8 -19 22 -43 30 -52 8 -10 12
-18 8 -18 -4 0 5 -16 20 -35 14 -19 31 -35 36 -35 5 0 17 -9 26 -19 23 -26
143 -52 222 -48 81 4 148 34 184 82 32 42 44 40 22 -3 -8 -16 -13 -31 -11 -34
8 -8 -42 -138 -68 -176 -13 -20 -29 -44 -33 -54 -14 -25 -152 -168 -163 -168
-5 0 -13 -9 -16 -20 -3 -11 -11 -20 -17 -20 -5 0 -23 -11 -40 -25 -16 -14 -35
-25 -42 -25 -7 0 -28 -13 -46 -30 -18 -16 -39 -30 -46 -30 -7 0 -19 -6 -26
-13 -7 -7 -49 -19 -93 -26 -44 -7 -88 -14 -98 -16 -9 -2 -15 0 -12 5 4 6 -43
13 -152 23 -12 1 -25 5 -29 10 -4 4 -15 7 -24 7 -9 0 -30 11 -46 25 -16 14
-37 25 -46 25 -10 0 -18 5 -18 11 0 6 -18 29 -40 50 -22 22 -38 39 -35 39 2 0
-6 10 -18 23 -58 60 -83 94 -79 105 2 7 -1 12 -6 12 -5 0 -20 20 -33 45 -13
25 -28 45 -32 45 -4 0 -7 6 -6 13 2 23 -13 57 -24 50 -6 -4 -8 2 -5 15 4 12 3
22 -1 22 -9 0 -43 98 -38 108 3 4 1 31 -4 61 -4 30 -5 59 -1 65 4 6 7 32 7 58
0 53 11 64 20 21 17 -83 68 -129 173 -158 76 -22 161 -17 222 13 25 12 37 20
27 17 -10 -3 -15 -1 -12 5 3 6 13 10 22 10 13 0 14 2 2 18 -13 16 -12 16 4 3
17 -14 22 -11 52 25 18 21 44 62 56 89 39 88 49 113 49 120 0 29 73 45 111 25z
m-681 -87 c-11 -17 -11 -17 -6 0 3 10 7 28 7 40 2 22 2 22 6 0 2 -12 -1 -30
-7 -40z m-63 -95 c-3 -8 -6 -5 -6 6 -1 11 2 17 5 13 3 -3 4 -12 1 -19z m438
-97 c-35 -34 -100 -45 -183 -31 -44 7 -70 16 -65 21 5 5 28 6 55 1 48 -9 135
-1 178 16 36 15 37 14 15 -7z m945 -16 c0 -8 -4 -15 -10 -15 -5 0 -7 7 -4 15
4 8 8 15 10 15 2 0 4 -7 4 -15z m-1414 -22 c-10 -10 -19 5 -10 18 6 11 8 11
12 0 2 -7 1 -15 -2 -18z m1334 -25 c0 -7 -22 -27 -48 -45 -39 -26 -60 -32
-119 -37 -40 -3 -73 -1 -73 3 0 5 -18 11 -39 15 -22 3 -56 16 -75 27 -42 25
-48 36 -8 15 80 -41 206 -43 292 -3 25 11 48 19 53 19 4 -1 7 3 7 8 0 6 2 10
5 10 3 0 5 -6 5 -12z m150 -103 c0 -14 -4 -25 -9 -25 -4 0 -6 11 -3 25 2 14 6
25 8 25 2 0 4 -11 4 -25z"/>
<path d="M2488 2363 c6 -2 18 -2 25 0 6 3 1 5 -13 5 -14 0 -19 -2 -12 -5z"/>
<path d="M1753 1745 c-38 -16 -73 -68 -73 -107 0 -15 7 -43 16 -62 14 -27 26
-37 60 -45 52 -13 57 -14 49 -1 -7 12 41 44 55 35 6 -3 8 -11 5 -16 -4 -5 -4
-9 0 -9 3 0 14 15 25 33 61 100 -33 218 -137 172z m25 -49 c5 -24 -10 -38 -31
-30 -20 7 -23 40 -4 47 19 8 32 2 35 -17z"/>
<path d="M2396 1636 c-31 -29 -36 -40 -36 -78 0 -31 7 -54 22 -74 30 -39 38
-44 75 -44 27 0 31 3 26 18 -3 9 -2 14 2 9 5 -4 19 0 32 8 21 14 24 14 29 1
10 -27 36 10 41 58 9 78 -42 136 -121 136 -26 0 -44 -9 -70 -34z m59 -31 c0
-13 -8 -21 -22 -23 -17 -3 -23 2 -23 16 0 10 3 22 7 26 13 13 38 1 38 -19z"/>
<path d="M2689 1363 c-13 -16 -12 -17 4 -4 16 13 21 21 13 21 -2 0 -10 -8 -17
-17z"/>
<path d="M1970 1274 c0 -29 12 -42 53 -59 47 -19 106 -19 135 1 22 15 30 44
12 44 -5 0 -10 -5 -10 -11 0 -8 -23 -10 -77 -7 -64 4 -80 9 -95 28 -16 20 -18
20 -18 4z"/>
<path d="M1769 1133 c16 -54 49 -108 93 -149 54 -50 139 -95 145 -76 3 6 14
12 24 12 11 0 17 -5 14 -10 -12 -20 27 -22 98 -5 122 29 205 83 243 156 l15
29 -114 0 c-186 0 -418 30 -509 65 -15 6 -16 3 -9 -22z m231 -64 c36 -4 98 -8
138 -9 42 0 71 -4 67 -9 -3 -5 5 -12 17 -14 59 -11 -46 -5 -142 8 -154 21
-180 27 -180 37 0 6 8 7 18 3 9 -4 46 -11 82 -16z m103 -156 c-7 -2 -21 -2
-30 0 -10 3 -4 5 12 5 17 0 24 -2 18 -5z"/>
<path d="M1863 913 c14 -15 30 -23 34 -19 4 4 0 12 -10 17 -9 6 -15 14 -13 18
3 4 -5 8 -16 8 -20 2 -20 1 5 -24z"/>
<path d="M1910 879 c0 -15 67 -46 77 -36 2 3 -6 8 -19 12 -13 4 -31 14 -40 23
-15 13 -18 13 -18 1z"/>
<path d="M2175 865 c-31 -15 -42 -24 -30 -24 11 -1 38 10 60 24 50 31 36 31
-30 0z"/>
<path d="M2038 833 c6 -2 18 -2 25 0 6 3 1 5 -13 5 -14 0 -19 -2 -12 -5z"/>
<path d="M2088 833 c7 -3 16 -2 19 1 4 3 -2 6 -13 5 -11 0 -14 -3 -6 -6z"/>
<path d="M995 1155 c3 -22 5 -48 5 -57 0 -10 5 -18 10 -18 13 0 11 27 -6 75
l-14 40 5 -40z"/>
<path d="M824 1091 c7 -55 10 -58 43 -40 16 9 21 15 12 17 -8 1 -24 17 -37 35
l-24 32 6 -44z"/>
<path d="M659 1013 c-1 -7 -3 -17 -4 -23 -1 -5 -3 -16 -4 -23 -1 -15 -1 -15
-74 -23 -32 -4 -53 -2 -64 7 -15 13 -15 12 -3 -6 14 -24 64 -55 87 -55 9 0 35
12 59 27 46 29 64 70 35 81 -9 3 -19 10 -23 16 -5 8 -8 7 -9 -1z"/>
<path d="M886 889 c-48 -19 -107 -21 -139 -3 -13 7 38 -52 62 -73 18 -16 95
-17 122 -3 10 6 39 14 64 19 42 8 47 7 67 -18 13 -17 22 -22 25 -13 3 6 8 10
12 7 5 -2 6 7 3 20 -3 16 -20 33 -50 50 -63 35 -107 39 -166 14z"/>
<path d="M640 664 c0 -6 7 -19 16 -30 14 -18 14 -18 3 6 -14 31 -19 36 -19 24z"/>
</g>
</svg>
